<?xml version="1.0" encoding="utf-8"?>
<!-- Generator: Adobe Illustrator 15.1.0, SVG Export Plug-In  -->
<!DOCTYPE svg PUBLIC "-//W3C//DTD SVG 1.1//EN" "http://www.w3.org/Graphics/SVG/1.1/DTD/svg11.dtd" [
	<!ENTITY ns_flows "http://ns.adobe.com/Flows/1.0/">
]>
<svg version="1.1"
	 xmlns="http://www.w3.org/2000/svg" xmlns:xlink="http://www.w3.org/1999/xlink" xmlns:a="http://ns.adobe.com/AdobeSVGViewerExtensions/3.0/"
	 x="0px" y="0px" width="300px" height="300px" viewBox="-5 -25.417 300 300"
	 overflow="visible" enable-background="new -5 -25.417 300 300" xml:space="preserve">
<defs>
</defs>
<path fill="#287DBC" d="M89.159,125.316v-11.457c29.431-20.664,38.055-27.62,38.055-36.008c0-6.035-5.713-8.899-11.643-8.899
	c-8.193,0-14.445,3.068-19.297,7.876l-8.732-9.616c7.008-7.672,17.681-11.15,27.706-11.15c15.416,0,27.489,8.184,27.489,21.789
	c0,11.662-10.133,21.789-28.783,34.678h29.322v12.787H89.159z"/>
<path fill="#287DBC" d="M145.968,116.314l8.518-10.127c4.852,4.808,11.535,7.467,19.08,7.467c8.518,0,13.369-4.603,13.369-10.127
	c0-6.035-4.744-10.127-12.938-10.127c-5.93,0-10.779,1.637-15.092,5.524l-10.674-2.762V57.085h49.375v12.787H163.54v16.674
	c3.449-3.273,9.271-5.729,15.848-5.729c12.182,0,23.07,8.286,23.07,22.096c0,14.423-11.428,23.63-28.783,23.63
	C161.169,126.543,152.112,122.656,145.968,116.314z"/>
<path fill="#287DBC" d="M99.437,173.576v-10.418l-9.716-14.223h3.584l7.646,11.453l7.647-11.453h3.583l-9.679,14.223v10.418H99.437z
	"/>
<path fill="#287DBC" d="M115.394,173.576v-24.641h16.143v2.734h-13.077v7.942h12.819v2.733h-12.819v8.496h13.077v2.734H115.394z"/>
<path fill="#287DBC" d="M153.996,173.576l-2.18-5.504h-12.265l-2.18,5.504h-3.51l9.938-24.641h3.806l9.9,24.641H153.996z
	 M145.684,152.076l-5.208,13.299h10.454L145.684,152.076z"/>
<path fill="#287DBC" d="M174.977,173.576l-6.242-9.789h-4.951v9.789h-3.064v-24.641h9.9c4.506,0,7.756,2.882,7.756,7.426
	c0,4.434-3.064,6.871-6.428,7.167l6.65,10.048H174.977z M175.199,156.361c0-2.808-2.031-4.691-4.951-4.691h-6.465v9.42h6.465
	C173.168,161.089,175.199,159.131,175.199,156.361z"/>
<path fill="#287DBC" d="M181.734,170.103l1.848-2.364c1.588,1.847,4.248,3.546,7.721,3.546c4.396,0,5.801-2.363,5.801-4.285
	c0-6.354-14.592-2.807-14.592-11.6c0-4.062,3.619-6.871,8.496-6.871c3.73,0,6.648,1.293,8.719,3.473l-1.848,2.254
	c-1.848-2.068-4.434-2.955-7.129-2.955c-2.92,0-5.062,1.588-5.062,3.916c0,5.541,14.592,2.363,14.592,11.562
	c0,3.546-2.438,7.24-9.088,7.24C186.943,174.019,183.768,172.394,181.734,170.103z"/>
<path fill="#92D3ED" d="M227.064,6.366c6.49,5.916,7.655,15.205,7.655,15.205s-9.356-0.31-15.845-6.228
	c-6.487-5.919-7.652-15.208-7.652-15.208S220.579,0.446,227.064,6.366z"/>
<path fill="#92D3ED" d="M181.432,224.458c-5.589,7.165-5.922,15.628-5.844,15.656c-0.022,0.105,11.718-3.175,16.99-11.083
	c5.27-7.803,2.703-15.895,2.777-15.87C195.328,213.237,187.009,217.355,181.432,224.458z"/>
<path fill="#92D3ED" d="M189.656,249.277c-10.309-1.751-14.152-9.546-14.152-9.474c0.128,0.036,11.172-3.152,20.685-2.031
	c9.617,1.172,15.262,7.138,15.262,7.204C211.583,245.003,200.076,251.07,189.656,249.277z"/>
<path fill="#92D3ED" d="M201.81,215.504c-3.837,7.861-2.461,16.077-2.392,16.091c-0.006,0.108,10.314-5.014,13.788-13.547
	c3.491-8.436-0.477-15.83-0.407-15.819C212.782,202.31,205.65,207.709,201.81,215.504z"/>
<path fill="#92D3ED" d="M214.396,238.091c-10.022,0.03-15.12-6.851-15.111-6.784c0.116,0.017,9.795-4.897,19.035-5.425
	c9.329-0.491,15.864,4.326,15.872,4.387C234.32,230.28,224.522,238.083,214.396,238.091z"/>
<path fill="#92D3ED" d="M219.4,203.394c-2.179,8.264,0.724,15.97,0.79,15.976c0.003,0.105,8.844-6.596,10.611-15.462
	c1.79-8.773-3.374-15.268-3.308-15.268C227.486,188.724,221.592,195.195,219.4,203.394z"/>
<path fill="#92D3ED" d="M235.702,223.11c-9.567,1.734-15.711-4.062-15.694-3.998c0.1,0,8.369-6.396,17.165-8.489
	c8.874-2.075,16.083,1.46,16.095,1.521C253.387,212.132,245.364,221.387,235.702,223.11z"/>
<path fill="#92D3ED" d="M234.084,188.626c-0.607,8.4,3.616,15.37,3.683,15.361c0.014,0.105,7.312-7.919,7.465-16.846
	c0.178-8.835-5.978-14.258-5.911-14.269C239.323,172.957,234.715,180.294,234.084,188.626z"/>
<path fill="#92D3ED" d="M253.423,204.943c-8.936,3.332-15.9-1.234-15.884-1.174c0.098-0.017,6.893-7.643,15.067-11.211
	c8.256-3.562,15.9-1.381,15.928-1.323C268.64,191.205,262.455,201.599,253.423,204.943z"/>
<path fill="#92D3ED" d="M245.736,171.706c0.865,8.288,6.216,14.321,6.271,14.304c0.03,0.101,5.727-8.979,4.354-17.714
	c-1.341-8.652-8.267-12.864-8.211-12.884C248.167,155.492,244.903,163.478,245.736,171.706z"/>
<path fill="#92D3ED" d="M267.425,184.198c-8.131,4.81-15.7,1.579-15.673,1.638c0.089-0.031,5.361-8.636,12.742-13.559
	c7.459-4.931,15.312-4.159,15.34-4.104C279.937,168.123,275.649,179.367,267.425,184.198z"/>
<path fill="#92D3ED" d="M254.235,153.128c2.239,7.949,8.505,12.886,8.556,12.863c0.044,0.095,4.078-9.775,1.276-18.092
	c-2.756-8.238-10.248-11.139-10.195-11.169C253.905,136.806,252.029,145.23,254.235,153.128z"/>
<path fill="#92D3ED" d="M277.566,161.492c-7.145,6.141-15.092,4.322-15.054,4.375c0.078-0.041,3.774-9.376,10.182-15.517
	c6.479-6.157,14.31-6.81,14.343-6.763C287.129,143.527,284.801,155.314,277.566,161.492z"/>
<path fill="#92D3ED" d="M259.455,133.398c3.521,7.41,10.478,11.128,10.522,11.098c0.056,0.086,2.367-10.314-1.771-18
	c-4.062-7.617-11.891-9.139-11.838-9.173C256.411,117.392,255.98,126.04,259.455,133.398z"/>
<path fill="#92D3ED" d="M283.702,137.439c-5.978,7.309-14.063,6.938-14.019,6.984c0.066-0.056,2.137-9.867,7.392-17.064
	c5.317-7.224,12.87-9.275,12.915-9.235C290.076,118.051,289.762,130.083,283.702,137.439z"/>
<path fill="#92D3ED" d="M261.27,113.027c4.689,6.682,12.129,9.093,12.165,9.054c0.072,0.077,0.594-10.587-4.756-17.455
	c-5.289-6.81-13.211-6.919-13.172-6.962C255.57,97.726,256.639,106.387,261.27,113.027z"/>
<path fill="#92D3ED" d="M285.688,112.656c-4.623,8.285-12.604,9.368-12.554,9.407c0.059-0.063,0.45-10.107,4.362-18.175
	c3.974-8.109,11-11.504,11.05-11.471C288.619,92.333,290.39,104.311,285.688,112.656z"/>
<path fill="#92D3ED" d="M259.561,92.518c5.755,5.797,13.438,6.84,13.475,6.799c0.083,0.065-1.24-10.599-7.711-16.481
	c-6.388-5.837-14.177-4.539-14.144-4.585C251.253,78.302,253.878,86.754,259.561,92.518z"/>
<path fill="#92D3ED" d="M283.391,87.764c-3.08,9.053-10.716,11.556-10.655,11.587c0.045-0.071-1.298-10.097,1.088-18.836
	c2.437-8.783,8.68-13.432,8.741-13.407C282.628,67.015,286.535,78.641,283.391,87.764z"/>
<path fill="#92D3ED" d="M254.205,72.382c6.704,4.766,14.398,4.427,14.43,4.38c0.094,0.054-3.133-10.346-10.611-15.097
	c-7.387-4.716-14.793-2.049-14.763-2.102C243.35,59.606,247.57,67.638,254.205,72.382z"/>
<path fill="#92D3ED" d="M276.653,63.383c-1.337,9.591-8.374,13.447-8.302,13.468c0.033-0.077-3.1-9.834-2.437-19.017
	c0.705-9.236,5.91-15.012,5.975-14.994C271.939,42.739,278.053,53.714,276.653,63.383z"/>
<path fill="#92D3ED" d="M245.064,53.133c7.545,3.617,15.012,1.908,15.037,1.857c0.114,0.038-5.084-9.827-13.449-13.323
	c-8.267-3.474-15.052,0.491-15.023,0.436C231.729,42.13,237.611,49.527,245.064,53.133z"/>
<path fill="#92D3ED" d="M265.344,40.137c0.599,9.878-5.581,14.983-5.5,14.993c0.02-0.079-4.95-9.321-6.205-18.7
	c-1.224-9.437,2.667-16.182,2.742-16.173C256.425,20.149,264.797,30.175,265.344,40.137z"/>
<path fill="#92D3ED" d="M232.028,35.282c8.264,2.37,15.262-0.657,15.284-0.713c0.122,0.022-7.109-9.043-16.25-11.18
	c-9.023-2.128-14.929,3.026-14.903,2.966C216.272,26.371,223.867,32.912,232.028,35.282z"/>
<path fill="#92D3ED" d="M249.311,18.651c2.741,9.888-2.314,16.104-2.231,16.104c0.011-0.081-6.849-8.557-10.229-17.865
	c-3.346-9.369-1.043-16.885-0.96-16.889C235.924-0.107,246.621,8.669,249.311,18.651z"/>
<path fill="#92D3ED" d="M142.543,242.711l0.164-1.814c15.021,1.359,29.997-0.311,44.503-4.97
	c14.136-4.54,27.225-11.707,38.904-21.303c24.232-19.912,39.861-48.327,44.007-80.014c3.391-25.943,1.653-49.066-5.176-68.719
	c-7.331-21.106-20.381-37.622-38.804-49.086l0.963-1.546c18.775,11.693,32.089,28.526,39.559,50.032
	c6.921,19.925,8.691,43.326,5.259,69.555c-4.204,32.145-20.062,60.975-44.65,81.185c-11.86,9.742-25.148,17.018-39.503,21.63
	C173.023,242.395,157.809,244.093,142.543,242.711z"/>
<path fill="#92D3ED" d="M62.936,6.366c-6.491,5.916-7.656,15.205-7.656,15.205s9.352-0.31,15.845-6.228
	c6.487-5.919,7.658-15.208,7.658-15.208S69.42,0.446,62.936,6.366z"/>
<path fill="#92D3ED" d="M108.569,224.458c5.585,7.165,5.921,15.628,5.849,15.656c0.02,0.105-11.727-3.175-16.993-11.083
	c-5.272-7.803-2.708-15.895-2.786-15.87C94.672,213.237,102.991,217.355,108.569,224.458z"/>
<path fill="#92D3ED" d="M100.343,249.277c10.312-1.751,14.152-9.546,14.152-9.474c-0.122,0.036-11.169-3.152-20.689-2.031
	c-9.609,1.172-15.254,7.138-15.259,7.204C78.412,245.003,89.921,251.07,100.343,249.277z"/>
<path fill="#92D3ED" d="M88.193,215.504c3.837,7.861,2.461,16.077,2.386,16.091c0.012,0.108-10.312-5.014-13.788-13.547
	c-3.488-8.436,0.478-15.83,0.408-15.819C77.218,202.31,84.349,207.709,88.193,215.504z"/>
<path fill="#92D3ED" d="M75.6,238.091c10.021,0.03,15.12-6.851,15.115-6.784c-0.117,0.017-9.796-4.897-19.033-5.425
	c-9.332-0.491-15.867,4.326-15.875,4.387C55.679,230.28,65.475,238.083,75.6,238.091z"/>
<path fill="#92D3ED" d="M70.597,203.394c2.181,8.264-0.722,15.97-0.785,15.976c-0.006,0.105-8.847-6.596-10.614-15.462
	c-1.787-8.773,3.374-15.268,3.311-15.268C62.511,188.724,68.408,195.195,70.597,203.394z"/>
<path fill="#92D3ED" d="M54.297,223.11c9.565,1.734,15.709-4.062,15.695-3.998c-0.105,0-8.369-6.396-17.16-8.489
	c-8.88-2.075-16.086,1.46-16.1,1.521C36.61,212.132,44.633,221.387,54.297,223.11z"/>
<path fill="#92D3ED" d="M55.916,188.626c0.604,8.4-3.616,15.37-3.683,15.361c-0.014,0.105-7.314-7.919-7.464-16.846
	c-0.18-8.835,5.977-14.258,5.914-14.269C50.676,172.957,55.286,180.294,55.916,188.626z"/>
<path fill="#92D3ED" d="M36.577,204.943c8.935,3.332,15.903-1.234,15.883-1.174c-0.094-0.017-6.893-7.643-15.064-11.211
	c-8.255-3.562-15.903-1.381-15.931-1.323C21.357,191.205,27.545,201.599,36.577,204.943z"/>
<path fill="#92D3ED" d="M44.261,171.706c-0.869,8.288-6.213,14.321-6.269,14.304c-0.027,0.101-5.727-8.979-4.354-17.714
	c1.334-8.652,8.269-12.864,8.211-12.884C41.83,155.492,45.096,163.478,44.261,171.706z"/>
<path fill="#92D3ED" d="M22.575,184.198c8.127,4.81,15.706,1.579,15.672,1.638c-0.089-0.031-5.361-8.636-12.739-13.559
	c-7.456-4.931-15.314-4.159-15.345-4.104C10.063,168.123,14.351,179.367,22.575,184.198z"/>
<path fill="#92D3ED" d="M35.764,153.128c-2.245,7.949-8.505,12.886-8.555,12.863c-0.044,0.095-4.079-9.775-1.271-18.092
	c2.752-8.238,10.245-11.139,10.189-11.169C36.092,136.806,37.97,145.23,35.764,153.128z"/>
<path fill="#92D3ED" d="M12.43,161.492c7.148,6.141,15.095,4.322,15.057,4.375c-0.078-0.041-3.774-9.376-10.181-15.517
	c-6.482-6.157-14.307-6.81-14.343-6.763C2.871,143.527,5.199,155.314,12.43,161.492z"/>
<path fill="#92D3ED" d="M30.542,133.398c-3.519,7.41-10.475,11.128-10.52,11.098c-0.056,0.086-2.367-10.314,1.765-18
	c4.071-7.617,11.893-9.139,11.843-9.173C33.589,117.392,34.016,126.04,30.542,133.398z"/>
<path fill="#92D3ED" d="M6.295,137.439c5.98,7.309,14.069,6.938,14.019,6.984c-0.061-0.056-2.134-9.867-7.393-17.064
	c-5.319-7.224-12.867-9.275-12.911-9.235C-0.076,118.051,0.238,130.083,6.295,137.439z"/>
<path fill="#92D3ED" d="M28.727,113.027c-4.692,6.682-12.124,9.093-12.159,9.054c-0.075,0.077-0.597-10.587,4.753-17.455
	c5.286-6.81,13.214-6.919,13.17-6.962C34.43,97.726,33.358,106.387,28.727,113.027z"/>
<path fill="#92D3ED" d="M4.311,112.656c4.617,8.285,12.606,9.368,12.554,9.407c-0.059-0.063-0.447-10.107-4.362-18.175
	c-3.974-8.109-11-11.504-11.052-11.471C1.378,92.333-0.39,104.311,4.311,112.656z"/>
<path fill="#92D3ED" d="M30.434,92.518c-5.752,5.797-13.43,6.84-13.466,6.799c-0.086,0.065,1.238-10.599,7.706-16.481
	c6.394-5.837,14.18-4.539,14.146-4.585C38.745,78.302,36.122,86.754,30.434,92.518z"/>
<path fill="#92D3ED" d="M6.609,87.764c3.074,9.053,10.716,11.556,10.652,11.587c-0.042-0.071,1.304-10.097-1.085-18.836
	C13.74,71.732,7.494,67.083,7.43,67.108C7.372,67.015,3.462,78.641,6.609,87.764z"/>
<path fill="#92D3ED" d="M35.797,72.382c-6.707,4.766-14.398,4.427-14.432,4.38c-0.1,0.054,3.133-10.346,10.611-15.097
	c7.381-4.716,14.79-2.049,14.762-2.102C46.65,59.606,42.427,67.638,35.797,72.382z"/>
<path fill="#92D3ED" d="M13.34,63.383c1.343,9.591,8.38,13.447,8.308,13.468c-0.033-0.077,3.1-9.834,2.437-19.017
	c-0.705-9.236-5.911-15.012-5.98-14.994C18.055,42.739,11.945,53.714,13.34,63.383z"/>
<path fill="#92D3ED" d="M44.935,53.133c-7.547,3.617-15.018,1.908-15.037,1.857c-0.114,0.038,5.086-9.827,13.45-13.323
	c8.263-3.474,15.048,0.491,15.025,0.436C58.268,42.13,52.383,49.527,44.935,53.133z"/>
<path fill="#92D3ED" d="M24.659,40.137c-0.602,9.878,5.575,14.983,5.497,14.993c-0.022-0.079,4.95-9.321,6.205-18.7
	c1.221-9.437-2.667-16.182-2.742-16.173C33.581,20.149,25.198,30.175,24.659,40.137z"/>
<path fill="#92D3ED" d="M57.974,35.282c-8.266,2.37-15.267-0.657-15.281-0.713c-0.127,0.022,7.104-9.043,16.244-11.18
	c9.021-2.128,14.924,3.026,14.906,2.966C73.724,26.371,66.132,32.912,57.974,35.282z"/>
<path fill="#92D3ED" d="M40.689,18.651c-2.736,9.888,2.317,16.104,2.231,16.104c-0.011-0.081,6.849-8.557,10.229-17.865
	c3.347-9.369,1.043-16.885,0.96-16.889C54.079-0.107,43.378,8.669,40.689,18.651z"/>
<path fill="#92D3ED" d="M147.456,242.711l-0.167-1.814c-15.018,1.359-29.991-0.311-44.498-4.97
	c-14.136-4.54-27.228-11.707-38.907-21.303c-24.232-19.912-39.86-48.327-44.003-80.014c-3.394-25.943-1.657-49.066,5.172-68.719
	c7.334-21.106,20.384-37.622,38.801-49.086l-0.963-1.546C44.114,26.953,30.806,43.786,23.333,65.292
	c-6.921,19.925-8.688,43.326-5.259,69.555c4.204,32.145,20.065,60.975,44.654,81.185c11.854,9.742,25.146,17.018,39.508,21.63
	C116.976,242.395,132.191,244.093,147.456,242.711z"/>
<polygon fill="#92D3ED" points="144.458,233.441 130.701,243.555 144.458,253.672 158.217,243.555 "/>
</svg>
